<svg viewBox="0 0 180 50" fill="none" xmlns="http://www.w3.org/2000/svg">
  <path d="M35 10C29.5 10 24.8 13.5 23 18.2C21.5 15.5 18.5 13.5 15 13.5C10 13.5 6 17.5 6 22.5C6 22.9 6 23.3 6.1 23.7C3.3 24.7 1.5 27.3 1.5 30.5C1.5 34.6 4.8 38 9 38H35C41.6 38 47 32.6 47 26C47 19.1 41.6 10 35 10Z" fill="#6C5CE7"/>
  <path d="M58 15h4.5l6.5 18h-4l-1.2-3.5h-7.1L55.5 33h-4l6.5-18zm4.3 11.5l-2.1-6.3-2.1 6.3h4.2z" fill="#1A1A1A"/>
  <path d="M71 15h4v14h7v4H71V15z" fill="#1A1A1A"/>
  <path d="M84 15h4v18h-4V15z" fill="#1A1A1A"/>
  <path d="M100 15c5 0 8.5 3.5 8.5 9.5 0 5.5-3.5 9.5-8.5 9.5s-8.5-4-8.5-9.5c0-6 3.5-9.5 8.5-9.5zm0 15c2.8 0 4.5-2.3 4.5-5.5s-1.7-5.5-4.5-5.5-4.5 2.3-4.5 5.5 1.7 5.5 4.5 5.5z" fill="#1A1A1A"/>
  <path d="M111 15h4v11c0 2.5 1.5 4 4 4s4-1.5 4-4V15h4v11c0 5-3.5 8-8 8s-8-3-8-8V15z" fill="#1A1A1A"/>
  <path d="M130 15h6c5.5 0 9 3 9 7.5s-3.5 7.5-9 7.5h-2v3h-4V15zm6 11c3 0 4.5-1.5 4.5-3.5S139 19 136 19h-2v7h2z" fill="#1A1A1A"/>
</svg>
