<svg viewBox="0 0 150 50" fill="none" xmlns="http://www.w3.org/2000/svg">
  <path d="M35.5 8c-.1-.5-.5-.8-.9-.8-.4 0-8.2-.2-8.2-.2s-6.5-6.3-7.2-7c-.6-.6-1.9-.5-2.4-.3 0 0-1.3.4-3.4 1C11.3 0 7.7-2.9 2.5 5.7c-1 1.5-1.7 3.3-2 5.3-.3 1.9-.2 3.8.3 5.6.5 1.8 1.4 3.4 2.6 4.8 1.2 1.4 2.7 2.4 4.4 3.1.8.3 1.7.5 2.6.6l-.1 17.9 23.6 4.4L50 42.2S35.6 8.6 35.5 8zM22.3 11.7c-1.6.5-3.3 1-5 1.5 1.1-4.2 3.2-8.3 7.3-9.8.8 2.1 1.8 4.4 2.3 8.3-1.5.5-3.1.9-4.6 1.3l.8.8c0-.3-.5-.1-.8-.1zM16.8 9.8c-.4-.4-.9-.7-1.4-.9-.5-.2-1-.2-1.5-.1-.5.1-1 .4-1.3.8-.3.4-.5.9-.5 1.4 0 .5.2 1 .5 1.4s.7.7 1.2.8c.5.1 1 .1 1.5-.1.5-.2.9-.5 1.2-.9.3-.4.5-.9.5-1.4 0-.3-.1-.7-.2-1z" fill="#96BF48"/>
  <path d="M35.5 8c-.4 0-8.2-.2-8.2-.2s-6.5-6.3-7.2-7c-.2-.2-.5-.4-.8-.4v41l23.6-4.4L35.5 8z" fill="#5E8E3E"/>
  <path d="M60 18h5.5c3.2 0 5.2 1.8 5.2 4.5 0 2.2-1.3 3.7-3.2 4.2l3.6 6.3H67l-3.2-5.8H64V33h-4V18zm5.2 6.4c1.2 0 1.8-.6 1.8-1.6s-.6-1.6-1.8-1.6H64v3.2h1.2z" fill="#1A1A1A"/>
  <path d="M73 25.5c0-4.5 3.2-8 7.8-8s7.8 3.5 7.8 8-3.2 8-7.8 8-7.8-3.5-7.8-8zm11.5 0c0-2.5-1.5-4.3-3.7-4.3s-3.7 1.8-3.7 4.3 1.5 4.3 3.7 4.3 3.7-1.8 3.7-4.3z" fill="#1A1A1A"/>
  <path d="M91 18h4v6.5h5.5V18h4v15h-4v-5.5H95V33h-4V18z" fill="#1A1A1A"/>
  <path d="M108 18h4v15h-4V18z" fill="#1A1A1A"/>
  <path d="M115 18h10v3h-6v3h5v3h-5v3h6v3h-10V18z" fill="#1A1A1A"/>
  <path d="M128 18h4l3.5 8 3.5-8h4l-5.8 12v3h-3.5v-3L128 18z" fill="#1A1A1A"/>
</svg>
